<?xml version="1.0" encoding="UTF-8" standalone="no"?> <!-- Created with Vectornator for iOS (http://vectornator.io/) --><!DOCTYPE svg PUBLIC "-//W3C//DTD SVG 1.1//EN" "http://www.w3.org/Graphics/SVG/1.1/DTD/svg11.dtd">
<svg height="100%" style="fill-rule:nonzero;clip-rule:evenodd;stroke-linecap:round;stroke-linejoin:round;" xmlns:xlink="http://www.w3.org/1999/xlink" xmlns="http://www.w3.org/2000/svg" xml:space="preserve" width="100%" xmlns:vectornator="http://vectornator.io" version="1.1" viewBox="0 0 736.145 978.694">
<metadata>
<vectornator:setting key="DimensionsVisible" value="1"/>
<vectornator:setting key="PencilOnly" value="0"/>
<vectornator:setting key="SnapToPoints" value="0"/>
<vectornator:setting key="GuidesVisible" value="1"/>
<vectornator:setting key="CMYKEnabledKey" value="0"/>
<vectornator:setting key="RulersVisible" value="1"/>
<vectornator:setting key="SnapToEdges" value="0"/>
<vectornator:setting key="OutlineMode" value="0"/>
<vectornator:setting key="DisplayWhiteBackground" value="0"/>
<vectornator:setting key="doHistoryDisabled" value="0"/>
<vectornator:setting key="TimeLapseWatermarkDisabled" value="0"/>
<vectornator:setting key="SnapToGuides" value="1"/>
<vectornator:setting key="Units" value="Pixels"/>
<vectornator:setting key="SnapToGrid" value="0"/>
<vectornator:setting key="IsolateActiveLayer" value="0"/>
<vectornator:setting key="DynamicGuides" value="0"/>
</metadata>
<defs>
<linearGradient y1="257.053" id="LinearGradient" x1="123.005" y2="257.053" x2="146.202" gradientUnits="userSpaceOnUse" gradientTransform="matrix(5.82811 0 0 5.82811 -705.807 -1396.3)">
<stop stop-color="#e6f7f2" offset="0.580975"/>
<stop stop-color="#b9c7c3" offset="1"/>
</linearGradient>
</defs>
<g id="Layer 1" vectornator:layerName="Layer 1">
<path vectornator:shadowColor="#626262" vectornator:shadowOpacity="0.889028" vectornator:shadowRadius="1.39072" d="M142.422+9.63611C144.549+9.63611+146.274+12.1506+146.274+15.2524L146.274+177.914C146.274+181.016+144.549+183.531+142.422+183.531C142.422+183.531+116.486+164.398+78.3016+183.531C31.1073+207.178+14.9346+183.531+14.9346+183.531C12.807+183.531+11.0822+181.016+11.0822+177.914L142.422+9.63611Z" vectornator:shadowOffset="2.37492" fill="url(#LinearGradient)" opacity="1" vectornator:shadowAngle="2.0025"/>
<path vectornator:shadowColor="#626262" vectornator:shadowOpacity="0.889028" vectornator:shadowRadius="2.03641" d="M151.89+2.32021L719.401+2.32021C722.503+2.32021+725.017+4.83472+725.017+7.93653L725.017+575.447C725.017+578.549+722.503+581.063+719.401+581.063L433.312+966.489C430.211+966.489+146.274+578.549+146.274+575.447L146.274+7.93653C146.274+4.83472+148.789+2.32021+151.89+2.32021Z" vectornator:shadowOffset="1.93615" fill="#e6f7f2" opacity="1" vectornator:shadowAngle="0.4602"/>
<path d="M524.89-89.5676L931.312-89.5676C934.414-89.5676+936.929-87.0531+936.929-83.9513L936.929+301.112C936.929+304.214+934.414+306.729+931.312+306.729L524.89+306.729C521.788+306.729+519.274+304.214+519.274+301.112L519.274-83.9513C519.274-87.0531+521.788-89.5676+524.89-89.5676Z" opacity="1" fill="none"/>
<path d="M435.355+629.17C583.223+629.084+703.007+533.398+702.899+415.451C702.835+345.626+660.457+433.34+595.209+516.555C550.241+573.906+494.41+629.12+434.079+629.155C286.21+629.242+167.31+297.817+167.419+415.764C167.527+533.711+287.486+629.257+435.355+629.17Z" opacity="1" fill="#f5d625"/>
<path d="M561.204+328.141C545.406+300.884+520.615+287.256+486.832+287.256C457.423+287.256+435.245+294.896+420.297+310.177C405.35+325.457+397.876+347.964+397.876+377.699C397.876+392.153+400.124+405.42+404.621+417.5C409.117+429.58+415.254+439.904+423.031+448.474C430.809+457.043+440.106+463.702+450.921+468.452C461.737+473.201+473.585+475.575+486.467+475.575C502.751+475.575+516.666+472.426+528.21+466.128C539.755+459.831+547.958+450.693+552.819+438.717L559.746+438.717C559.989+444.086+559.928+449.3+559.564+454.359C559.199+459.418+558.652+464.425+557.923+469.381C552.819+472.065+547.837+474.233+542.976+475.885C538.115+477.537+532.828+478.828+527.117+479.757C521.405+480.686+514.782+481.306+507.248+481.615C499.713+481.925+490.72+482.08+480.269+482.08C463.742+482.08+448.308+479.189+433.969+473.407C419.629+467.626+407.173+459.934+396.6+450.332C386.027+440.73+377.703+429.683+371.627+417.19C365.551+404.698+362.513+391.637+362.513+378.009C362.513+363.348+365.429+350.029+371.262+338.053C377.095+326.076+385.359+315.803+396.053+307.234C406.747+298.665+419.811+292.057+435.245+287.411C450.678+282.765+467.874+280.442+486.832+280.442C516.969+280.442+539.573+283.023+554.642+288.185C557.072+295.206+559.26+302.02+561.204+308.628C563.149+315.236+564.728+321.74+565.944+328.141L561.204+328.141Z" opacity="1" fill="#000000"/>
<path d="M305.951+329.153C321.742+301.721+346.522+288.005+380.292+288.005C409.688+288.005+431.857+295.694+446.798+311.073C461.739+326.452+469.209+349.104+469.209+379.03C469.209+393.578+466.962+406.93+462.468+419.088C457.973+431.245+451.839+441.636+444.065+450.261C436.29+458.885+426.998+465.587+416.187+470.367C405.376+475.147+393.532+477.537+380.656+477.537C364.379+477.537+350.47+474.368+338.93+468.029C327.391+461.691+319.191+452.495+314.332+440.441L307.408+440.441C307.165+445.845+307.226+451.092+307.591+456.184C307.955+461.275+308.502+466.315+309.23+471.303C314.332+474.004+319.313+476.186+324.172+477.849C329.03+479.511+334.315+480.81+340.024+481.746C345.733+482.681+352.353+483.304+359.884+483.616C367.416+483.928+376.405+484.084+386.851+484.084C403.372+484.084+418.798+481.174+433.132+475.355C447.466+469.536+459.917+461.795+470.485+452.131C481.053+442.467+489.374+431.349+495.447+418.776C501.521+406.203+504.558+393.058+504.558+379.342C504.558+364.587+501.643+351.182+495.812+339.129C489.981+327.075+481.721+316.736+471.032+308.111C460.342+299.487+447.284+292.837+431.857+288.161C416.43+283.485+399.241+281.147+380.292+281.147C350.167+281.147+327.573+283.744+312.51+288.94C310.081+296.006+307.894+302.864+305.951+309.514C304.007+316.164+302.428+322.711+301.213+329.153L305.951+329.153Z" opacity="1" fill="#000000"/>
<path d="M439.73+120.976C586.609+121.062+705.59+216.106+705.483+333.264C705.375+450.421+585.342+121.076+438.463+120.991C291.584+120.905+173.48+450.111+173.588+332.953C173.695+215.795+292.851+120.89+439.73+120.976Z" opacity="1" fill="#f5d625"/>
</g>
</svg>
