<?xml version="1.0" encoding="UTF-8" standalone="no"?> <!-- Created with Vectornator for iOS (http://vectornator.io/) --><!DOCTYPE svg PUBLIC "-//W3C//DTD SVG 1.1//EN" "http://www.w3.org/Graphics/SVG/1.1/DTD/svg11.dtd">
<svg height="100%" style="fill-rule:nonzero;clip-rule:evenodd;stroke-linecap:round;stroke-linejoin:round;" xmlns:xlink="http://www.w3.org/1999/xlink" xmlns="http://www.w3.org/2000/svg" xml:space="preserve" width="100%" xmlns:vectornator="http://vectornator.io" version="1.1" viewBox="0 0 1616.99 977.922">
<metadata>
<vectornator:setting key="DimensionsVisible" value="1"/>
<vectornator:setting key="PencilOnly" value="0"/>
<vectornator:setting key="SnapToPoints" value="0"/>
<vectornator:setting key="GuidesVisible" value="1"/>
<vectornator:setting key="RulersVisible" value="1"/>
<vectornator:setting key="OutlineMode" value="0"/>
<vectornator:setting key="SnapToEdges" value="0"/>
<vectornator:setting key="CMYKEnabledKey" value="0"/>
<vectornator:setting key="DisplayWhiteBackground" value="0"/>
<vectornator:setting key="doHistoryDisabled" value="0"/>
<vectornator:setting key="TimeLapseWatermarkDisabled" value="0"/>
<vectornator:setting key="SnapToGuides" value="1"/>
<vectornator:setting key="Units" value="Points"/>
<vectornator:setting key="SnapToGrid" value="0"/>
<vectornator:setting key="DynamicGuides" value="1"/>
<vectornator:setting key="IsolateActiveLayer" value="0"/>
</metadata>
<defs>
<linearGradient y1="257.053" id="LinearGradient" x1="123.005" y2="257.053" x2="146.202" gradientUnits="userSpaceOnUse" gradientTransform="matrix(-5.82811 0 0 5.82811 1942.06 -1401.71)">
<stop stop-color="#e6f7f2" offset="0.580975"/>
<stop stop-color="#b9c7c3" offset="1"/>
</linearGradient>
</defs>
<g id="Layer 1" vectornator:layerName="Layer 1">
<g opacity="1">
<path fill-rule="evenodd" vectornator:shadowColor="#626262" vectornator:shadowOpacity="0.889028" vectornator:shadowRadius="1.39072" d="M1093.83+4.22896C1091.7+4.22896+1089.98+6.74345+1089.98+9.84525L1089.98+172.507C1089.98+175.609+1091.7+178.124+1093.83+178.124C1093.83+178.124+1119.76+158.991+1157.95+178.124C1205.14+201.771+1221.32+178.124+1221.32+178.124C1223.44+178.124+1225.17+175.609+1225.17+172.507L1093.83+4.22896Z" vectornator:shadowOffset="2.37492" fill="url(#LinearGradient)" opacity="1" vectornator:shadowAngle="2.0025"/>
<path fill-rule="evenodd" vectornator:shadowColor="#626262" vectornator:shadowOpacity="0.889028" vectornator:shadowRadius="6.88658" d="M1093.77+3.11939L526.255+3.11939C523.153+3.11939+520.639+5.6339+520.639+8.73571L520.639+576.246C520.639+579.348+523.153+581.862+526.255+581.862L812.344+967.288C815.445+967.288+1099.38+579.348+1099.38+576.246L1099.38+8.73571C1099.38+5.6339+1096.87+3.11939+1093.77+3.11939Z" vectornator:shadowOffset="4.1766" fill="#e6f7f2" opacity="1" vectornator:shadowAngle="0.4602"/>
<path d="M720.766-88.7684L314.344-88.7684C311.242-88.7684+308.727-86.2539+308.727-83.1521L308.727+301.911C308.727+305.013+311.242+307.528+314.344+307.528L720.766+307.528C723.868+307.528+726.382+305.013+726.382+301.911L726.382-83.1521C726.382-86.2539+723.868-88.7684+720.766-88.7684Z" opacity="1" fill="none"/>
<path d="M810.301+629.969C662.433+629.883+542.649+534.197+542.757+416.25C542.821+346.425+585.199+434.139+650.447+517.354C695.415+574.705+751.246+629.919+811.577+629.954C959.446+630.041+1078.35+298.616+1078.24+416.563C1078.13+534.51+958.17+630.056+810.301+629.969Z" fill-rule="evenodd" fill="#f5d625" opacity="1"/>
<path d="M684.452+328.94C700.25+301.683+725.041+288.055+758.824+288.055C788.233+288.055+810.411+295.695+825.359+310.976C840.306+326.256+847.78+348.763+847.78+378.498C847.78+392.952+845.532+406.219+841.035+418.299C836.539+430.379+830.402+440.703+822.625+449.273C814.847+457.842+805.55+464.501+794.735+469.251C783.919+474+772.071+476.374+759.189+476.374C742.905+476.374+728.99+473.225+717.446+466.927C705.901+460.63+697.698+451.492+692.837+439.516L685.91+439.516C685.667+444.885+685.728+450.099+686.092+455.158C686.457+460.217+687.004+465.224+687.733+470.18C692.837+472.864+697.819+475.032+702.68+476.684C707.541+478.336+712.828+479.627+718.539+480.556C724.251+481.485+730.874+482.105+738.408+482.414C745.943+482.724+754.936+482.879+765.387+482.879C781.914+482.879+797.348+479.988+811.687+474.206C826.027+468.425+838.483+460.733+849.056+451.131C859.629+441.529+867.953+430.482+874.029+417.989C880.105+405.497+883.143+392.436+883.143+378.808C883.143+364.147+880.227+350.828+874.394+338.852C868.561+326.875+860.297+316.602+849.603+308.033C838.909+299.464+825.845+292.856+810.411+288.21C794.978+283.564+777.782+281.241+758.824+281.241C728.687+281.241+706.083+283.822+691.014+288.984C688.584+296.005+686.396+302.819+684.452+309.427C682.507+316.035+680.928+322.539+679.712+328.94L684.452+328.94Z" fill-rule="evenodd" fill="#000000" opacity="1"/>
<path d="M939.705+329.952C923.914+302.52+899.134+288.804+865.364+288.804C835.968+288.804+813.799+296.493+798.858+311.872C783.917+327.251+776.447+349.903+776.447+379.829C776.447+394.377+778.694+407.729+783.188+419.887C787.683+432.044+793.817+442.435+801.591+451.06C809.366+459.684+818.658+466.386+829.469+471.166C840.28+475.946+852.124+478.336+865+478.336C881.277+478.336+895.186+475.167+906.726+468.828C918.265+462.49+926.465+453.294+931.324+441.24L938.248+441.24C938.491+446.644+938.43+451.891+938.065+456.983C937.701+462.074+937.154+467.114+936.426+472.102C931.324+474.803+926.343+476.985+921.484+478.648C916.626+480.31+911.341+481.609+905.632+482.545C899.923+483.48+893.303+484.103+885.772+484.415C878.24+484.727+869.251+484.883+858.805+484.883C842.284+484.883+826.858+481.973+812.524+476.154C798.19+470.335+785.739+462.594+775.171+452.93C764.603+443.266+756.282+432.148+750.209+419.575C744.135+407.002+741.098+393.857+741.098+380.141C741.098+365.386+744.013+351.981+749.844+339.928C755.675+327.874+763.935+317.535+774.624+308.91C785.314+300.286+798.372+293.636+813.799+288.96C829.226+284.284+846.415+281.946+865.364+281.946C895.489+281.946+918.083+284.543+933.146+289.739C935.575+296.805+937.762+303.663+939.705+310.313C941.649+316.963+943.228+323.51+944.443+329.952L939.705+329.952Z" fill-rule="evenodd" fill="#000000" opacity="1"/>
<path d="M805.926+121.775C659.047+121.861+540.066+216.905+540.173+334.063C540.281+451.22+660.314+121.875+807.193+121.79C954.072+121.704+1072.18+450.91+1072.07+333.752C1071.96+216.594+952.805+121.689+805.926+121.775Z" fill-rule="evenodd" fill="#f5d625" opacity="1"/>
</g>
</g>
<g id="Layer 2" vectornator:layerName="Layer 2">
<g opacity="1">
<path d="M144.83+777.121C144.39+777.121+143.986+777.081+143.619+777.001C143.252+776.921+142.848+776.881+142.408+776.881C141.526+776.881+139.434+777.842+136.13+779.765C132.826+781.687+128.641+783.85+123.575+786.253C118.509+788.656+112.745+790.739+106.284+792.501C99.8227+794.263+93.0679+795.145+86.0194+795.145C76.7682+795.145+67.8841+793.863+59.3672+791.3C50.8502+788.736+43.3244+784.771+36.7899+779.404C30.2553+774.037+25.079+767.349+21.2611+759.338C17.4431+751.328+15.5342+741.956+15.5342+731.222C15.5342+720.648+17.4431+711.316+21.2611+703.225C25.079+695.135+30.2553+688.366+36.7899+682.919C43.3244+677.472+50.8502+673.387+59.3672+670.663C67.8841+667.94+76.7682+666.578+86.0194+666.578C93.5084+666.578+100.3+667.219+106.394+668.5C112.488+669.782+117.811+671.144+122.363+672.586C126.915+674.028+130.513+675.389+133.156+676.671C135.8+677.953+137.415+678.594+138.002+678.594C138.736+678.594+139.361+678.193+139.874+677.392C140.388+676.591+140.792+675.95+141.086+675.47L144.39+678.353L127.209+707.431L125.007+705.749C125.007+705.268+124.97+704.787+124.896+704.307C124.823+703.826+124.713+703.266+124.566+702.625C124.272+700.862+122.804+699.06+120.161+697.218C117.517+695.375+114.25+693.733+110.359+692.291C106.467+690.849+102.356+689.648+98.0239+688.687C93.692+687.725+89.6905+687.245+86.0194+687.245C79.8519+687.245+73.9414+688.206+68.2879+690.129C62.6344+692.051+57.7152+694.855+53.5301+698.539C49.345+702.224+46.0043+706.75+43.508+712.117C41.0116+717.484+39.7634+723.612+39.7634+730.501C39.7634+737.39+41.0116+743.518+43.508+748.885C46.0043+754.252+49.345+758.777+53.5301+762.462C57.7152+766.147+62.6344+768.951+68.2879+770.873C73.9414+772.796+79.8519+773.757+86.0194+773.757C90.7184+773.757+95.6377+773.156+100.777+771.955C105.917+770.753+110.616+769.231+114.874+767.389C119.133+765.546+122.694+763.464+125.557+761.141C128.421+758.818+129.852+756.615+129.852+754.532C129.852+753.411+129.559+752.449+128.971+751.648L132.055+749.726L146.593+775.199L144.83+777.121Z" opacity="1" fill="#000000"/>
<path d="M240.206+734.346C254.597+734.346+261.792+729.379+261.792+719.446C261.792+715.441+260.066+712.277+256.616+709.954C253.165+707.631+247.695+706.47+240.206+706.47L205.404+706.47L205.404+734.346L240.206+734.346ZM240.646+688.687C253.715+688.687+263.921+691.05+271.263+695.776C278.606+700.502+282.277+708.552+282.277+719.927C282.277+724.253+281.542+728.098+280.074+731.462C278.606+734.826+276.66+737.75+274.237+740.233C271.814+742.717+269.134+744.719+266.197+746.241C263.26+747.763+260.25+748.925+257.166+749.726L278.752+784.09C279.927+785.853+281.212+787.174+282.607+788.055C284.002+788.937+285.507+789.617+287.123+790.098L287.123+794.424L253.422+794.424L253.422+790.098C255.331+790.098+256.285+789.377+256.285+787.935C256.285+786.333+255.184+783.85+252.981+780.486L235.58+752.129L204.963+752.129L204.963+786.493C204.963+787.775+205.44+788.696+206.395+789.257C207.349+789.818+208.267+790.098+209.148+790.098L209.148+794.424L179.853+794.424L179.853+790.098C182.496+790.098+183.818+788.896+183.818+786.493L183.818+696.617C183.818+694.214+182.496+693.012+179.853+693.012L179.853+688.687L240.646+688.687Z" opacity="1" fill="#000000"/>
<path d="M310.471+697.098C309.443+695.656+308.195+694.614+306.726+693.973C305.258+693.333+303.863+693.012+302.541+693.012L302.541+688.687L338.885+688.687L338.885+693.012C338.151+693.012+337.343+693.293+336.462+693.853C335.581+694.414+335.141+695.175+335.141+696.136C335.141+697.098+335.434+697.979+336.022+698.78C336.609+699.581+337.27+700.542+338.004+701.663L360.251+733.385L379.855+703.586C381.176+701.503+382.167+699.941+382.828+698.9C383.489+697.859+383.819+696.857+383.819+695.896C383.819+694.614+383.452+693.813+382.718+693.493C381.984+693.172+381.25+693.012+380.515+693.012L380.515+688.687L414.216+688.687L414.216+693.012C412.454+693.012+410.508+694.094+408.379+696.256C406.25+698.419+404.378+700.622+402.762+702.865L369.062+750.447L369.062+786.493C369.062+788.896+370.457+790.098+373.247+790.098L373.247+794.424L343.951+794.424L343.951+790.098C346.594+790.098+347.916+788.896+347.916+786.493L347.916+749.485L310.471+697.098Z" opacity="1" fill="#000000"/>
<path d="M498.138+732.664C502.396+732.664+505.957+731.823+508.821+730.14C511.684+728.458+513.116+725.054+513.116+719.927C513.116+714.961+511.684+711.476+508.821+709.474C505.957+707.471+502.396+706.47+498.138+706.47L461.133+706.47L461.133+732.664L498.138+732.664ZM439.987+696.617C439.987+694.214+438.152+693.012+434.481+693.012L434.481+688.687L498.578+688.687C510.473+688.687+519.393+691.01+525.341+695.656C531.288+700.302+534.261+708.392+534.261+719.927C534.261+731.462+531.288+739.432+525.341+743.838C519.393+748.244+510.473+750.447+498.578+750.447L461.133+750.447L461.133+786.493C461.133+788.896+462.675+790.098+465.759+790.098L465.759+794.424L434.481+794.424L434.481+790.098C438.152+790.098+439.987+788.896+439.987+786.493L439.987+696.617Z" opacity="1" fill="#000000"/>
<path d="M583.381+790.098C584.115+790.098+584.849+789.818+585.583+789.257C586.318+788.696+586.685+787.775+586.685+786.493L586.685+706.47L558.05+706.47C556.875+706.47+555.774+706.79+554.746+707.431C553.718+708.072+553.204+709.113+553.204+710.555L549.239+710.555L549.239+682.919L553.204+682.919C553.204+685.162+553.718+686.684+554.746+687.485C555.774+688.286+556.875+688.687+558.05+688.687L636.465+688.687C637.64+688.687+638.741+688.286+639.769+687.485C640.797+686.684+641.311+685.162+641.311+682.919L645.276+682.919L645.276+710.555L641.311+710.555C641.311+709.113+640.797+708.072+639.769+707.431C638.741+706.79+637.64+706.47+636.465+706.47L607.83+706.47L607.83+786.493C607.83+788.896+609.152+790.098+611.795+790.098L611.795+794.424L583.381+794.424L583.381+790.098Z" opacity="1" fill="#000000"/>
<path d="M719.505+705.028C714.806+705.028+710.217+705.869+705.739+707.551C701.26+709.233+697.258+711.636+693.734+714.76C690.21+717.884+687.383+721.689+685.254+726.175C683.125+730.661+682.06+735.788+682.06+741.555C682.06+747.323+683.125+752.449+685.254+756.935C687.383+761.421+690.21+765.226+693.734+768.35C697.258+771.474+701.26+773.877+705.739+775.559C710.217+777.241+714.806+778.082+719.505+778.082C724.204+778.082+728.793+777.241+733.272+775.559C737.751+773.877+741.752+771.474+745.277+768.35C748.801+765.226+751.628+761.421+753.757+756.935C755.886+752.449+756.951+747.323+756.951+741.555C756.951+735.788+755.886+730.661+753.757+726.175C751.628+721.689+748.801+717.884+745.277+714.76C741.752+711.636+737.751+709.233+733.272+707.551C728.793+705.869+724.204+705.028+719.505+705.028ZM719.505+687.245C727.582+687.245+735.181+688.366+742.303+690.609C749.425+692.852+755.629+696.216+760.915+700.702C766.202+705.188+770.387+710.835+773.471+717.644C776.554+724.453+778.096+732.423+778.096+741.555C778.096+750.687+776.554+758.657+773.471+765.466C770.387+772.275+766.202+777.922+760.915+782.408C755.629+786.894+749.425+790.138+742.303+792.141C735.181+794.143+727.582+795.145+719.505+795.145C711.429+795.145+703.83+794.143+696.708+792.141C689.586+790.138+683.382+786.894+678.095+782.408C672.809+777.922+668.624+772.275+665.54+765.466C662.456+758.657+660.915+750.687+660.915+741.555C660.915+732.423+662.456+724.453+665.54+717.644C668.624+710.835+672.809+705.188+678.095+700.702C683.382+696.216+689.586+692.852+696.708+690.609C703.83+688.366+711.429+687.245+719.505+687.245Z" opacity="1" fill="#000000"/>
<path d="M928.098+777.121C927.657+777.121+927.253+777.081+926.886+777.001C926.519+776.921+926.115+776.881+925.675+776.881C924.794+776.881+922.701+777.842+919.397+779.765C916.093+781.687+911.908+783.85+906.842+786.253C901.776+788.656+896.012+790.739+889.551+792.501C883.09+794.263+876.335+795.145+869.286+795.145C860.035+795.145+851.151+793.863+842.634+791.3C834.117+788.736+826.592+784.771+820.057+779.404C813.522+774.037+808.346+767.349+804.528+759.338C800.71+751.328+798.801+741.956+798.801+731.222C798.801+720.648+800.71+711.316+804.528+703.225C808.346+695.135+813.522+688.366+820.057+682.919C826.592+677.472+834.117+673.387+842.634+670.663C851.151+667.94+860.035+666.578+869.286+666.578C876.776+666.578+883.567+667.219+889.661+668.5C895.755+669.782+901.078+671.144+905.63+672.586C910.183+674.028+913.78+675.389+916.423+676.671C919.067+677.953+920.682+678.594+921.269+678.594C922.004+678.594+922.628+678.193+923.142+677.392C923.656+676.591+924.059+675.95+924.353+675.47L927.657+678.353L910.476+707.431L908.274+705.749C908.274+705.268+908.237+704.787+908.163+704.307C908.09+703.826+907.98+703.266+907.833+702.625C907.539+700.862+906.071+699.06+903.428+697.218C900.785+695.375+897.517+693.733+893.626+692.291C889.735+690.849+885.623+689.648+881.291+688.687C876.959+687.725+872.958+687.245+869.286+687.245C863.119+687.245+857.209+688.206+851.555+690.129C845.902+692.051+840.982+694.855+836.797+698.539C832.612+702.224+829.271+706.75+826.775+712.117C824.279+717.484+823.031+723.612+823.031+730.501C823.031+737.39+824.279+743.518+826.775+748.885C829.271+754.252+832.612+758.777+836.797+762.462C840.982+766.147+845.902+768.951+851.555+770.873C857.209+772.796+863.119+773.757+869.286+773.757C873.985+773.757+878.905+773.156+884.044+771.955C889.184+770.753+893.883+769.231+898.141+767.389C902.4+765.546+905.961+763.464+908.824+761.141C911.688+758.818+913.119+756.615+913.119+754.532C913.119+753.411+912.826+752.449+912.238+751.648L915.322+749.726L929.86+775.199L928.098+777.121Z" opacity="1" fill="#000000"/>
<path d="M1022.81+750.206L1004.97+709.834L989.332+750.206L1022.81+750.206ZM949.243+790.098C951.005+789.778+952.437+788.856+953.538+787.334C954.64+785.813+955.484+784.411+956.071+783.129L988.891+705.028C989.772+702.785+990.47+700.983+990.984+699.621C991.498+698.259+991.755+696.937+991.755+695.656C991.755+694.694+991.571+694.094+991.204+693.853C990.837+693.613+990.433+693.333+989.992+693.012L989.992+688.687L1023.25+688.687L1023.25+693.012C1022.81+693.333+1022.33+693.573+1021.82+693.733C1021.31+693.893+1021.05+694.534+1021.05+695.656C1021.05+696.617+1021.38+697.778+1022.04+699.14C1022.7+700.502+1023.4+702.064+1024.13+703.826L1059.82+785.532C1060.55+786.974+1061.36+788.015+1062.24+788.656C1063.12+789.297+1064.08+789.778+1065.1+790.098L1065.1+794.424L1033.83+794.424L1033.83+790.819C1034.56+790.819+1035.33+790.579+1036.14+790.098C1036.95+789.617+1037.35+788.736+1037.35+787.455C1037.35+786.493+1037.2+785.612+1036.91+784.811C1036.62+784.01+1036.25+782.969+1035.81+781.687L1029.86+767.989L982.724+767.989L976.556+780.966C975.969+782.248+975.492+783.409+975.124+784.451C974.757+785.492+974.574+786.413+974.574+787.214C974.574+788.496+974.941+789.297+975.675+789.617C976.409+789.938+977.437+790.098+978.759+790.098L978.759+794.424L949.243+794.424L949.243+790.098Z" opacity="1" fill="#000000"/>
<path d="M1138.01+776.641C1142.56+776.641+1146.9+776.28+1151.01+775.559C1155.12+774.838+1158.72+773.236+1161.8+770.753C1164.88+768.27+1167.34+764.665+1169.18+759.939C1171.01+755.213+1171.93+748.845+1171.93+740.834C1171.93+732.824+1171.01+726.536+1169.18+721.97C1167.34+717.404+1164.88+713.959+1161.8+711.636C1158.72+709.313+1155.12+707.871+1151.01+707.311C1146.9+706.75+1142.56+706.47+1138.01+706.47L1109.38+706.47L1109.38+776.641L1138.01+776.641ZM1083.17+790.098C1086.54+790.098+1088.23+788.896+1088.23+786.493L1088.23+696.617C1088.23+694.214+1086.54+693.012+1083.17+693.012L1083.17+688.687L1144.4+688.687C1153.06+688.687+1160.48+690.209+1166.65+693.253C1172.81+696.296+1177.84+700.262+1181.73+705.148C1185.63+710.034+1188.49+715.642+1190.32+721.97C1192.16+728.298+1193.08+734.826+1193.08+741.555C1193.08+748.284+1192.2+754.812+1190.43+761.141C1188.67+767.469+1185.88+773.076+1182.06+777.962C1178.25+782.849+1173.33+786.814+1167.31+789.858C1161.29+792.902+1153.94+794.424+1145.28+794.424L1083.17+794.424L1083.17+790.098Z" opacity="1" fill="#000000"/>
<path d="M1306.07+711.036C1306.07+707.992+1303.8+706.47+1299.25+706.47L1245.5+706.47L1245.5+730.501L1279.42+730.501C1281.92+730.501+1283.75+730.301+1284.93+729.9C1286.1+729.5+1286.69+728.418+1286.69+726.656L1290.66+726.656L1290.66+752.129L1286.25+752.129C1286.69+750.367+1286.1+749.285+1284.49+748.885C1282.87+748.484+1280.6+748.284+1277.66+748.284L1245.5+748.284L1245.5+776.641L1301.89+776.641C1303.65+776.641+1305.12+776.2+1306.29+775.319C1307.47+774.438+1308.06+773.276+1308.06+771.834L1312.02+771.834L1312.02+797.067L1308.06+797.067C1308.06+795.625+1307.47+794.824+1306.29+794.664C1305.12+794.504+1303.65+794.424+1301.89+794.424L1221.05+794.424L1221.05+790.098C1221.79+790.098+1222.52+789.818+1223.25+789.257C1223.99+788.696+1224.36+787.775+1224.36+786.493L1224.36+696.617C1224.36+695.335+1223.99+694.414+1223.25+693.853C1222.52+693.293+1221.79+693.012+1221.05+693.012L1221.05+688.687L1299.25+688.687C1303.8+688.687+1306.07+687.245+1306.07+684.361L1310.04+684.361L1310.04+711.036L1306.07+711.036Z" opacity="1" fill="#000000"/>
<path d="M1345.94+790.098C1346.68+789.938+1347.3+789.617+1347.82+789.137C1348.33+788.656+1348.59+787.535+1348.59+785.772L1348.59+697.818C1348.59+695.576+1348.4+694.214+1348.04+693.733C1347.67+693.253+1346.97+693.012+1345.94+693.012L1345.94+688.687L1376.56+688.687L1376.56+693.012C1375.09+693.012+1374.36+693.733+1374.36+695.175C1374.36+695.816+1374.61+696.657+1375.13+697.698C1375.64+698.74+1376.41+700.222+1377.44+702.144L1404.31+756.214L1431.41+702.384C1432.43+700.462+1433.24+698.9+1433.83+697.698C1434.42+696.497+1434.71+695.656+1434.71+695.175C1434.71+693.733+1434.12+693.012+1432.95+693.012L1432.95+688.687L1464.01+688.687L1464.01+693.012C1463.27+693.012+1462.57+693.212+1461.91+693.613C1461.25+694.014+1460.92+694.855+1460.92+696.136L1460.92+786.493C1460.92+787.775+1461.25+788.696+1461.91+789.257C1462.57+789.818+1463.27+790.098+1464.01+790.098L1464.01+794.424L1438.45+794.424L1438.45+790.098C1441.54+790.098+1442.86+788.896+1442.42+786.493L1442.42+718.966L1441.98+718.966L1404.53+794.424L1402.77+794.424L1367.31+718.966L1367.53+718.966L1367.09+718.966L1367.09+786.493C1367.09+788.896+1368.34+790.098+1370.83+790.098L1370.83+794.424L1345.94+794.424L1345.94+790.098Z" opacity="1" fill="#000000"/>
<path d="M1497.71+697.098C1496.68+695.656+1495.43+694.614+1493.96+693.973C1492.49+693.333+1491.1+693.012+1489.78+693.012L1489.78+688.687L1526.12+688.687L1526.12+693.012C1525.39+693.012+1524.58+693.293+1523.7+693.853C1522.82+694.414+1522.38+695.175+1522.38+696.136C1522.38+697.098+1522.67+697.979+1523.26+698.78C1523.84+699.581+1524.51+700.542+1525.24+701.663L1547.49+733.385L1567.09+703.586C1568.41+701.503+1569.4+699.941+1570.06+698.9C1570.72+697.859+1571.06+696.857+1571.06+695.896C1571.06+694.614+1570.69+693.813+1569.95+693.493C1569.22+693.172+1568.49+693.012+1567.75+693.012L1567.75+688.687L1601.45+688.687L1601.45+693.012C1599.69+693.012+1597.74+694.094+1595.61+696.256C1593.49+698.419+1591.61+700.622+1590+702.865L1556.3+750.447L1556.3+786.493C1556.3+788.896+1557.69+790.098+1560.48+790.098L1560.48+794.424L1531.19+794.424L1531.19+790.098C1533.83+790.098+1535.15+788.896+1535.15+786.493L1535.15+749.485L1497.71+697.098Z" opacity="1" fill="#000000"/>
</g>
</g>
</svg>
